<svg width="20" height="20" viewBox="0 0 20 20" fill="none" xmlns="http://www.w3.org/2000/svg">
<path d="M10 -8.74228e-07C15.5163 -3.91979e-07 20 4.48372 20 10C20 15.5163 15.5163 20 10 20C4.48372 20 3.91979e-07 15.5163 8.74228e-07 10C1.35648e-06 4.48372 4.48372 -1.35648e-06 10 -8.74228e-07ZM10 18.6047C14.7442 18.6047 18.6047 14.7442 18.6047 10C18.6047 5.25581 14.7442 1.39535 10 1.39535C5.25582 1.39535 1.39535 5.25581 1.39535 10C1.39535 14.7442 5.25581 18.6046 10 18.6047Z" fill="#017BD9"/>
<path d="M11.1723 6.0185C11.3491 6.0185 11.5258 6.08362 11.6653 6.22315C11.9351 6.49292 11.9351 6.93943 11.6653 7.2092L8.87465 9.9999L11.6653 12.7906C11.9351 13.0604 11.9351 13.5069 11.6653 13.7767C11.3956 14.0464 10.9491 14.0464 10.6793 13.7767L7.39558 10.4929C7.12581 10.2232 7.12581 9.77664 7.39558 9.50687L10.6793 6.22315C10.8188 6.08362 10.9956 6.0185 11.1723 6.0185Z" fill="#017BD9"/>
</svg>
