<svg width="15" height="17" viewBox="0 0 15 17" fill="none" xmlns="http://www.w3.org/2000/svg">
<path fill-rule="evenodd" clip-rule="evenodd" d="M11.1023 7.00013C10.7573 7.00013 10.4773 6.72013 10.4773 6.37513V4.58596C10.4773 2.8393 9.05647 1.41846 7.3098 1.41846H7.29646C6.4523 1.41846 5.66146 1.74346 5.06396 2.33596C4.4623 2.93096 4.1298 3.72513 4.12646 4.5718V6.37513C4.12646 6.72013 3.84646 7.00013 3.50146 7.00013C3.15646 7.00013 2.87646 6.72013 2.87646 6.37513V4.58596C2.88146 3.38596 3.34563 2.27846 4.18313 1.44846C5.02147 0.617631 6.12813 0.136798 7.3123 0.168464C9.74563 0.168464 11.7273 2.15013 11.7273 4.58596V6.37513C11.7273 6.72013 11.4473 7.00013 11.1023 7.00013Z" fill="#212121"/>
<path fill-rule="evenodd" clip-rule="evenodd" d="M4.11825 6.94092C2.71992 6.94092 1.58325 8.07758 1.58325 9.47592V13.0501C1.58325 14.4484 2.71992 15.5851 4.11825 15.5851H10.4858C11.8833 15.5851 13.0208 14.4484 13.0208 13.0501V9.47592C13.0208 8.07758 11.8833 6.94092 10.4858 6.94092H4.11825ZM10.4858 16.8351H4.11825C2.03075 16.8351 0.333252 15.1376 0.333252 13.0501V9.47592C0.333252 7.38842 2.03075 5.69092 4.11825 5.69092H10.4858C12.5733 5.69092 14.2708 7.38842 14.2708 9.47592V13.0501C14.2708 15.1376 12.5733 16.8351 10.4858 16.8351Z" fill="#212121"/>
<path fill-rule="evenodd" clip-rule="evenodd" d="M7.30176 12.8132C6.95676 12.8132 6.67676 12.5332 6.67676 12.1882V10.3374C6.67676 9.9924 6.95676 9.7124 7.30176 9.7124C7.64676 9.7124 7.92676 9.9924 7.92676 10.3374V12.1882C7.92676 12.5332 7.64676 12.8132 7.30176 12.8132Z" fill="#212121"/>
</svg>
