<svg width="20" height="21" viewBox="0 0 20 21" fill="none" xmlns="http://www.w3.org/2000/svg">
<path fill-rule="evenodd" clip-rule="evenodd" d="M9.81394 11.7207C9.25644 11.7207 8.70061 11.5366 8.23561 11.1682L4.49811 8.15491C4.22895 7.93824 4.18728 7.54408 4.40311 7.27574C4.62061 7.00824 5.01394 6.96574 5.28228 7.18158L9.01645 10.1916C9.48561 10.5632 10.1464 10.5632 10.6189 10.1882L14.3156 7.18324C14.5839 6.96408 14.9773 7.00574 15.1956 7.27408C15.4131 7.54158 15.3723 7.93491 15.1048 8.15324L11.4014 11.1632C10.9331 11.5349 10.3731 11.7207 9.81394 11.7207Z" fill="#212121"/>
<mask id="mask0_87_210" style="mask-type:luminance" maskUnits="userSpaceOnUse" x="0" y="2" width="19" height="17">
<path fill-rule="evenodd" clip-rule="evenodd" d="M0.833252 2.1665H18.7498V18.4165H0.833252V2.1665Z" fill="white"/>
</mask>
<g mask="url(#mask0_87_210)">
<path fill-rule="evenodd" clip-rule="evenodd" d="M5.69909 17.1665H13.8824C13.8841 17.1648 13.8908 17.1665 13.8958 17.1665C14.8466 17.1665 15.6899 16.8265 16.3366 16.1807C17.0874 15.4332 17.4999 14.359 17.4999 13.1565V7.43317C17.4999 5.10567 15.9783 3.4165 13.8824 3.4165H5.70075C3.60492 3.4165 2.08325 5.10567 2.08325 7.43317V13.1565C2.08325 14.359 2.49659 15.4332 3.24659 16.1807C3.89325 16.8265 4.73742 17.1665 5.68742 17.1665H5.69909ZM5.68492 18.4165C4.39909 18.4165 3.25075 17.9498 2.36409 17.0665C1.37659 16.0815 0.833252 14.6932 0.833252 13.1565V7.43317C0.833252 4.43067 2.92575 2.1665 5.70075 2.1665H13.8824C16.6574 2.1665 18.7499 4.43067 18.7499 7.43317V13.1565C18.7499 14.6932 18.2066 16.0815 17.2191 17.0665C16.3333 17.949 15.1841 18.4165 13.8958 18.4165H13.8824H5.70075H5.68492Z" fill="#212121"/>
</g>
</svg>
